<?xml version="1.0" encoding="utf-8"?>
<!-- Generator: Adobe Illustrator 19.1.0, SVG Export Plug-In . SVG Version: 6.00 Build 0)  -->
<svg version="1.1" id="Layer_1" xmlns="http://www.w3.org/2000/svg" xmlns:xlink="http://www.w3.org/1999/xlink" x="0px" y="0px"
	 viewBox="0 0 1280 800" style="enable-background:new 0 0 1280 800;" xml:space="preserve">
<style type="text/css">
	.st0{fill:url(#SVGID_1_);}
	.st1{fill:url(#SVGID_2_);}
	.st2{fill:#1A1A1A;}
</style>
<linearGradient id="SVGID_1_" gradientUnits="userSpaceOnUse" x1="68.5482" y1="452.4138" x2="251.4518" y2="346.8143">
	<stop  offset="0" style="stop-color:#FF9012"/>
	<stop  offset="1" style="stop-color:#FFAE75"/>
</linearGradient>
<polygon class="st0" points="257,583.9 63,442.8 63,215.3 257,356.4 "/>
<linearGradient id="SVGID_2_" gradientUnits="userSpaceOnUse" x1="207.1379" y1="497.556" x2="448.651" y2="358.1183">
	<stop  offset="0" style="stop-color:#E24301"/>
	<stop  offset="1" style="stop-color:#DD5F13"/>
</linearGradient>
<polygon class="st1" points="257,356.4 398.8,271.8 398.8,499.3 257,583.9 "/>
<g>
	<g>
		<rect x="621" y="343" class="st2" width="26" height="158"/>
	</g>
	<g>
		<path class="st2" d="M969,438v-15.3c0-43.8-31.3-79.5-71.6-79.5c-1.1,0-2.2,0-3.3,0.1l0,0c-38.7,1.9-70.2,36.9-70.2,79.7
			c0,43.3,32,78.6,71,79.5v0.2c28,0,45.3-5.8,63.4-18.1l-12-25.3c-16.7,11.9-25.5,16-50.5,16.2v-0.2c-20,0-36.3-15.3-41.5-37.3h82.6
			H969z M854.6,412c5.3-24,23.1-39.5,44.2-39.5c3,0,5.9,0.1,8.7,0.7l0,0c17.2,3.7,31,16.8,35.5,38.8h-18.3H854.6z"/>
	</g>
	<circle class="st2" cx="634.3" cy="306.1" r="13.9"/>
	<polygon class="st2" points="827.6,343 826.3,343 797,343 746.6,455.9 696.1,343 666.8,343 665.5,343 736.4,501 756.6,501 	"/>
	<g>
		<path class="st2" d="M569,454.2V272h-27v182.2c0,20.9,14.5,40.4,34.7,47.4l11-24.8C577.1,474.3,569,464.7,569,454.2z"/>
	</g>
	<path class="st2" d="M1051,371v-28h-23v-23h-28v23h-23v28h23v83.2c0,20.9,15,40.4,35.2,47.4l11.5-24.6
		c-10.6-2.5-18.7-12.2-18.7-22.8V371H1051z"/>
	<path class="st2" d="M1189,343v84v7.8c0,22.5-19.9,40.9-44.5,40.9S1100,457.4,1100,435v-92h-26v92c0,37.4,31.5,67.8,71.1,67.8
		c16.8,0,32.9-5.5,43.9-14.8v9.9c0,53.5-26.2,59.6-46.8,59.6c-17.4,0-40.4-8.9-62.6-23.8l-11.1,25.1c15.2,9.7,44.4,25.9,73.9,25.9
		c28,0,74.5-11.3,74.5-86.8v-63.2V427v-84H1189z"/>
</g>
</svg>
